PathFileType   4   (X/Y/Z)																																																																																																																	
DataRate	CameraRate	NumFrames	NumMarkers	Units	OrigDataRate	OrigDataStartFrame	OrigNumFrames																																																																																																										
120	120	4	37	mm	120	93	106																																																																																																										
Frame#	Time	midhip	hip_r	hip_l	knee_r	knee_l	ankle_r	ankle_l	midasis	asis_r	asis_l	psis_r	psis_l	epicondLat_r	epicondLat_l	epicondMed_r	epicondMed_l	malleolusLat_r	malleolusLat_l	malleolusMedv_r	malleolusMedv_l	neck	subclavicle_r	subclavicle_l	sternalnotch	xyphoidprocess	thighwand_r	thighwand_l	upperleg1_r	upperleg1_l	upperleg2_r	upperleg2_l	shankwand_r	shankwand_l	lowerleg1_r	lowerleg1_l	toe_r	toe_l																																																																											
 	 	X1	Y1	Z1	X2	Y2	Z2	X3	Y3	Z3	X4	Y4	Z4	X5	Y5	Z5	X6	Y6	Z6	X7	Y7	Z7	X8	Y8	Z8	X9	Y9	Z9	X10	Y10	Z10	X11	Y11	Z11	X12	Y12	Z12	X13	Y13	Z13	X14	Y14	Z14	X15	Y15	Z15	X16	Y16	Z16	X17	Y17	Z17	X18	Y18	Z18	X19	Y19	Z19	X20	Y20	Z20	X21	Y21	Z21	X22	Y22	Z22	X23	Y23	Z23	X24	Y24	Z24	X25	Y25	Z25	X26	Y26	Z26	X27	Y27	Z27	X28	Y28	Z28	X29	Y29	Z29	X30	Y30	Z30	X31	Y31	Z31	X32	Y32	Z32	X33	Y33	Z33	X34	Y34	Z34	X35	Y35	Z35	X36	Y36	Z36	X37	Y37	Z37	

	93	0.88333	1699.348	884.122	-242.23	1693.934	874.376	-191.841	1700.528	874.623	-298.206	1594.222	479.733	-184.938	1902.579	492.09	-314.412	1438.686	91.542	-193.798	1923.193	77.581	-300.391	1782.811	965.17	-239.508	1776.405	964.93	-136.174	1789.218	965.41	-342.842	1586.379	1008.496	-216.938	1588.846	1003.979	-302.103	1600.659	479.141	-125.791	1907.06	496.962	-373.542	1583.612	495.507	-242.565	1893.624	483.378	-267.663	1434.091	92.522	-156.09	1916.893	75.949	-339.351	1440.038	95.682	-225.567	1927.774	90.774	-271.66	1673.523	1454.993	-239.901	1767.438	1379.043	-157.725	1770.476	1384.369	-314.169	1756.746	1383.445	-240.09	1789.967	1181.595	-253.067	1654.699	573.384	-43.833	1979.348	671.641	-318.554	1683.803	630.073	-113.845	1889.276	689.277	-364.027	1663.427	550.172	-139.203	1919.06	606.886	-358.712	1472.569	156.143	-86.034	2013.241	197.203	-308.413	1478.572	216.347	-145.661	1946.647	242.866	-315.338	1552.97	42.7	-193.557	2043.444	71.765	-302.98
	94	0.89167	1713.543	882.989	-242.905	1706.999	872.781	-192.079	1714.998	872.924	-298.348	1600.64	479.967	-184.857	1918.527	490.748	-314.226	1439.986	93.743	-194.059	1957.367	77.007	-301.908	1796.298	963.719	-238.672	1788.532	963.581	-135.488	1804.063	963.858	-341.855	1599.579	1006.709	-218.858	1602.808	1001.995	-304.059	1606.967	479.341	-125.698	1923.324	495.757	-373.32	1590.419	495.977	-242.598	1907.986	480.559	-268.068	1435.175	94.846	-156.381	1951.722	75.314	-340.966	1441.527	97.981	-225.938	1961.414	90.237	-273.063	1687.178	1453.306	-240.768	1780.798	1377.385	-158.369	1784.281	1382.475	-314.916	1770.342	1381.675	-240.822	1803.397	1179.772	-253.401	1662.5	573.023	-43.868	1993.566	669.547	-317.501	1692.286	629.403	-113.915	1903.348	687.03	-363.211	1670.906	549.633	-139.29	1933.329	604.66	-358.318	1474.079	158.098	-86.165	2042.206	200.921	-308.005	1481.326	218.177	-145.903	1973.767	243.64	-315.828	1553.343	42.818	-193.486	2077.952	74.297	-302.339
	95	0.9	1727.921	881.806	-243.486	1720.241	871.157	-192.25	1729.629	871.173	-298.406	1607.704	480.08	-184.797	1934.423	489.424	-313.943	1441.413	96.071	-194.25	1989.758	77	-303.461	1809.935	962.235	-237.797	1800.823	962.219	-134.765	1819.046	962.252	-340.829	1612.959	1004.862	-220.769	1617.006	999.955	-305.988	1613.802	479.454	-125.613	1939.429	494.514	-373.014	1597.969	496.046	-242.506	1922.41	477.751	-268.184	1436.4	97.316	-156.603	1984.778	75.337	-342.611	1443.167	100.351	-226.19	1993.161	90.264	-274.551	1700.86	1451.548	-241.768	1794.201	1375.648	-159.092	1798.162	1380.529	-315.717	1783.997	1379.837	-241.623	1816.935	1177.893	-253.834	1670.538	572.613	-43.824	2007.909	667.249	-316.685	1700.986	628.592	-113.854	1917.441	684.65	-362.367	1678.847	549.04	-139.144	1947.526	602.301	-357.88	1475.838	160.173	-86.254	2069.728	204.661	-307.532	1484.286	220.029	-146.077	1999.674	244.678	-316.243	1553.738	42.91	-193.386	2110.582	77.174	-301.789
	96	0.90833	1742.173	880.314	-243.885	1733.647	869.512	-192.347	1744.368	869.384	-298.376	1615.622	480.037	-184.794	1950.256	488.146	-313.578	1443.025	98.524	-194.335	2020.092	77.379	-304.929	1823.718	960.706	-236.907	1813.316	960.831	-134.024	1834.121	960.582	-339.789	1626.52	1002.992	-222.644	1631.478	997.896	-307.847	1621.321	479.459	-125.57	1955.443	493.302	-372.627	1606.36	495.938	-242.45	1936.67	475.165	-267.875	1437.816	99.939	-156.721	2015.77	75.818	-344.16	1444.929	102.812	-226.247	2022.755	90.579	-276.006	1714.534	1449.756	-242.966	1807.714	1373.865	-159.946	1812.098	1378.534	-316.608	1797.734	1377.947	-242.531	1830.628	1175.974	-254.38	1678.828	572.138	-43.699	2022.397	664.919	-315.882	1710.131	627.8	-113.649	1931.717	682.329	-361.452	1687.312	548.343	-138.881	1961.728	599.962	-357.259	1477.893	162.356	-86.267	2095.627	208.198	-306.938	1487.521	221.925	-146.165	2024.298	245.84	-316.437	1554.177	42.983	-193.269	2141.136	80.311	-301.432
